<?xml version="1.0" encoding="UTF-8" standalone="no"?>
<!-- Created with Inkscape (http://www.inkscape.org/) -->

<svg
   width="413.13211"
   height="97.740021"
   viewBox="0 0 109.30787 25.86038"
   version="1.1"
   id="svg844"
   inkscape:version="1.1.2 (b8e25be833, 2022-02-05)"
   sodipodi:docname="logo-with-white-text.svg"
   xmlns:inkscape="http://www.inkscape.org/namespaces/inkscape"
   xmlns:sodipodi="http://sodipodi.sourceforge.net/DTD/sodipodi-0.dtd"
   xmlns="http://www.w3.org/2000/svg"
   xmlns:svg="http://www.w3.org/2000/svg">
  <sodipodi:namedview
     id="namedview846"
     pagecolor="#ffffff"
     bordercolor="#666666"
     borderopacity="1.0"
     inkscape:pageshadow="2"
     inkscape:pageopacity="0.0"
     inkscape:pagecheckerboard="0"
     inkscape:document-units="px"
     showgrid="false"
     fit-margin-top="2"
     fit-margin-left="2"
     fit-margin-right="2"
     fit-margin-bottom="2"
     lock-margins="true"
     units="px"
     width="413.13211px"
     inkscape:zoom="0.77771465"
     inkscape:cx="185.8008"
     inkscape:cy="26.359282"
     inkscape:window-width="1284"
     inkscape:window-height="1082"
     inkscape:window-x="865"
     inkscape:window-y="266"
     inkscape:window-maximized="0"
     inkscape:current-layer="layer1" />
  <defs
     id="defs841">
    <rect
       x="102.86549"
       y="423.03433"
       width="632.6228"
       height="63.005116"
       id="rect8305" />
    <rect
       x="126.01023"
       y="200.58771"
       width="27.002192"
       height="138.86841"
       id="rect2117" />
  </defs>
  <g
     inkscape:label="Layer 1"
     inkscape:groupmode="layer"
     id="layer1"
     transform="translate(-46.776093,-135.56981)">
    <text
       xml:space="preserve"
       transform="scale(0.26458333)"
       id="text2115"
       style="font-style:normal;font-weight:normal;font-size:40px;line-height:1.25;font-family:sans-serif;white-space:pre;shape-inside:url(#rect2117);fill:#000000;fill-opacity:1;stroke:none" />
    <text
       xml:space="preserve"
       transform="matrix(0.26458333,0,0,0.26458333,45.531056,30.106234)"
       id="text8303"
       style="font-style:normal;font-weight:normal;font-size:42.6667px;line-height:1.25;font-family:sans-serif;white-space:pre;shape-inside:url(#rect8305);fill:#ffffff;fill-opacity:1;stroke:none"><tspan
         x="102.86523"
         y="462.03252"
         id="tspan35594"><tspan
           style="font-weight:bold;font-family:'TT Commons';-inkscape-font-specification:'TT Commons Bold'"
           id="tspan35592">Hex Music Player</tspan></tspan></text>
    <path
       id="XMLID_59_"
       style="fill:#1caf7b;fill-opacity:1;stroke-width:0.194841"
       d="m 70.636275,148.4998 c 0,6.03677 -4.893232,10.93039 -10.929992,10.93039 -6.036759,-1.9e-4 -10.93019,-4.89362 -10.93019,-10.93039 0,-6.03617 4.893431,-10.92999 10.930384,-10.92999 6.036566,0 10.929798,4.89382 10.929798,10.92999 z" />
    <g
       id="g10"
       transform="matrix(0.26458333,0,0,0.26458333,25.301866,132.46668)" />
    <g
       id="g12"
       transform="matrix(0.26458333,0,0,0.26458333,25.301866,132.46668)" />
    <g
       id="g14"
       transform="matrix(0.26458333,0,0,0.26458333,25.301866,132.46668)" />
    <g
       id="g16"
       transform="matrix(0.26458333,0,0,0.26458333,25.301866,132.46668)" />
    <g
       id="g18"
       transform="matrix(0.26458333,0,0,0.26458333,25.301866,132.46668)" />
    <g
       id="g20"
       transform="matrix(0.26458333,0,0,0.26458333,25.301866,132.46668)" />
    <g
       id="g22"
       transform="matrix(0.26458333,0,0,0.26458333,25.301866,132.46668)" />
    <g
       id="g24"
       transform="matrix(0.26458333,0,0,0.26458333,25.301866,132.46668)" />
    <g
       id="g26"
       transform="matrix(0.26458333,0,0,0.26458333,25.301866,132.46668)" />
    <g
       id="g28"
       transform="matrix(0.26458333,0,0,0.26458333,25.301866,132.46668)" />
    <g
       id="g30"
       transform="matrix(0.26458333,0,0,0.26458333,25.301866,132.46668)" />
    <g
       id="g32"
       transform="matrix(0.26458333,0,0,0.26458333,25.301866,132.46668)" />
    <g
       id="g34"
       transform="matrix(0.26458333,0,0,0.26458333,25.301866,132.46668)" />
    <g
       id="g36"
       transform="matrix(0.26458333,0,0,0.26458333,25.301866,132.46668)" />
    <g
       id="g38"
       transform="matrix(0.26458333,0,0,0.26458333,25.301866,132.46668)" />
    <g
       id="g24305"
       transform="matrix(0.13777338,-0.13777338,0.13777338,0.13777338,43.098261,149.82516)">
      <path
         id="path888-6-5"
         style="fill:#ecb33c;fill-opacity:1;stroke:none;stroke-width:2.05861;stroke-linejoin:round"
         d="m 90.697703,78.205975 h -12.764 v 0 L 90.697,56.097755 77.933705,33.989535 v 0 h 12.763999 l 12.763596,22.1085 z"
         sodipodi:nodetypes="ccccccccc" />
      <path
         id="path888-6-4"
         style="fill:#efbc53;fill-opacity:1;stroke:none;stroke-width:1.87236;stroke-linejoin:round"
         d="M 77.08818,76.2055 H 65.478991 v 0 l 11.60855,-20.108 -11.608548,-20.108 v 0 H 77.088181 L 88.697,56.097755 Z"
         sodipodi:nodetypes="ccccccccc" />
      <path
         id="path888-6-9"
         style="fill:#f0c56a;fill-opacity:1;stroke:none;stroke-width:1.68616;stroke-linejoin:round"
         d="M 64.633208,74.205549 H 54.178541 v 0 L 64.632631,56.097271 54.178543,37.988993 v 0 H 64.633209 L 75.087541,56.0975 Z"
         sodipodi:nodetypes="ccccccccc" />
      <path
         sodipodi:type="star"
         style="fill:#f4cd81;fill-opacity:1;stroke-width:2;stroke-linejoin:round"
         id="path23605"
         inkscape:flatsided="true"
         sodipodi:sides="6"
         sodipodi:cx="23.752413"
         sodipodi:cy="55.969704"
         sodipodi:r1="25.527821"
         sodipodi:r2="22.10774"
         sodipodi:arg1="-3.1415723"
         sodipodi:arg2="-2.6179735"
         inkscape:rounded="0"
         inkscape:randomized="0"
         transform="matrix(0.728605,0,0,0.728605,26.727217,15.317086)"
         d="m -1.7754078,55.969184 12.7643598,-22.107481 25.527821,5.19e-4 12.76346,22.108001 -12.76436,22.107482 -25.52782,-5.2e-4 z" />
    </g>
  </g>
</svg>
