<?xml version="1.0" encoding="UTF-8" standalone="no"?>
<!-- Generator: Adobe Illustrator 18.0.0, SVG Export Plug-In . SVG Version: 6.00 Build 0)  -->

<svg
   version="1.1"
   id="Capa_1"
   x="0px"
   y="0px"
   viewBox="0 0 112.195 112.195"
   style="enable-background:new 0 0 112.195 112.195;"
   xml:space="preserve"
   sodipodi:docname="hex-final-logo.svg"
   inkscape:export-filename="C:\Users\Administrator\Desktop\logo512.png"
   inkscape:export-xdpi="438.09439"
   inkscape:export-ydpi="438.09439"
   inkscape:version="1.1.2 (b8e25be833, 2022-02-05)"
   xmlns:inkscape="http://www.inkscape.org/namespaces/inkscape"
   xmlns:sodipodi="http://sodipodi.sourceforge.net/DTD/sodipodi-0.dtd"
   xmlns="http://www.w3.org/2000/svg"
   xmlns:svg="http://www.w3.org/2000/svg"><defs
   id="defs43">
	
	

		
	</defs><sodipodi:namedview
   id="namedview41"
   pagecolor="#ffffff"
   bordercolor="#666666"
   borderopacity="1.0"
   inkscape:pageshadow="2"
   inkscape:pageopacity="0.0"
   inkscape:pagecheckerboard="0"
   showgrid="false"
   inkscape:zoom="7.7810954"
   inkscape:cx="51.727936"
   inkscape:cy="54.555301"
   inkscape:window-width="1756"
   inkscape:window-height="1082"
   inkscape:window-x="197"
   inkscape:window-y="130"
   inkscape:window-maximized="0"
   inkscape:current-layer="Capa_1"
   inkscape:snap-object-midpoints="true" />
<path
   id="XMLID_59_"
   style="fill:#1caf7b;fill-opacity:1"
   d="m 112.195,56.097 c 0,30.983 -25.114,56.099 -56.097,56.099 C 25.115,112.195 0,87.08 0,56.097 0,25.117 25.115,0 56.099,0 c 30.982,0 56.096,25.117 56.096,56.097 z" />
<g
   id="g10">
</g>
<g
   id="g12">
</g>
<g
   id="g14">
</g>
<g
   id="g16">
</g>
<g
   id="g18">
</g>
<g
   id="g20">
</g>
<g
   id="g22">
</g>
<g
   id="g24">
</g>
<g
   id="g26">
</g>
<g
   id="g28">
</g>
<g
   id="g30">
</g>
<g
   id="g32">
</g>
<g
   id="g34">
</g>
<g
   id="g36">
</g>
<g
   id="g38">
</g>
<g
   id="g24305"
   transform="rotate(-45,60.272177,66.176937)"><path
     id="path888-6-5"
     style="fill:#ecb33c;fill-opacity:1;stroke:none;stroke-width:2.05861;stroke-linejoin:round"
     d="m 90.697703,78.205975 h -12.764 v 0 L 90.697,56.097755 77.933705,33.989535 v 0 h 12.763999 l 12.763596,22.1085 z"
     sodipodi:nodetypes="ccccccccc" /><path
     id="path888-6-4"
     style="fill:#efbc53;fill-opacity:1;stroke:none;stroke-width:1.87236;stroke-linejoin:round"
     d="M 77.08818,76.2055 H 65.478991 v 0 l 11.60855,-20.108 -11.608548,-20.108 v 0 H 77.088181 L 88.697,56.097755 Z"
     sodipodi:nodetypes="ccccccccc" /><path
     id="path888-6-9"
     style="fill:#f0c56a;fill-opacity:1;stroke:none;stroke-width:1.68616;stroke-linejoin:round"
     d="M 64.633208,74.205549 H 54.178541 v 0 L 64.632631,56.097271 54.178543,37.988993 v 0 H 64.633209 L 75.087541,56.0975 Z"
     sodipodi:nodetypes="ccccccccc" /><path
     sodipodi:type="star"
     style="fill:#f4cd81;fill-opacity:1;stroke-width:2;stroke-linejoin:round"
     id="path23605"
     inkscape:flatsided="true"
     sodipodi:sides="6"
     sodipodi:cx="23.752413"
     sodipodi:cy="55.969704"
     sodipodi:r1="25.527821"
     sodipodi:r2="22.10774"
     sodipodi:arg1="-3.1415723"
     sodipodi:arg2="-2.6179735"
     inkscape:rounded="0"
     inkscape:randomized="0"
     d="m -1.7754078,55.969184 12.7643598,-22.107481 25.527821,5.19e-4 12.76346,22.108001 -12.76436,22.107482 -25.52782,-5.2e-4 z"
     transform="matrix(0.728605,0,0,0.728605,26.727217,15.317086)" /></g></svg>
